<svg width="0" height="0" class="hidden">
  <symbol version="1" xmlns="http://www.w3.org/2000/svg" viewBox="0 0 2000 900" id="hotpng.com (6)">
    <path d="M127.3 212.5c-36.8 6.7-67.8 35.5-80.9 75.2-1.4 4.3-3.4 12.9-4.5 19.1-4.6 27.3-.8 52.2 12.5 79.7 14 29.1 31.2 51.8 81.6 108 54.3 60.4 72.8 85 88.9 118.5 10.7 22.2 18.1 50 18.1 68.1 0 11.4 1.6 7.8 2.9-6.5 2.1-23.4 8.7-45 20.7-68.6 16.4-32.2 34.9-56.6 90.5-119.5 31.4-35.5 41.2-47.3 53.2-63.8 16.6-22.7 26.5-41 32.5-59.7 4.6-14.3 5.6-21.1 5.5-36.5-.1-33.4-12.4-63.9-34.7-86-13.4-13.3-28.1-21.9-45.6-26.7-11.1-3-33.8-3.2-44-.5-20.2 5.5-34.3 13.7-48.3 28.1-13 13.3-24.9 34.4-29.7 52.8-1 4-1.9 6.5-1.9 5.4-.2-3.7-7.2-23-11.3-30.9-9-17.3-25.1-34.8-40.6-44.1-9-5.4-24.2-10.9-34.2-12.5-8.6-1.4-21.8-1.2-30.7.4zm604.6 0c-51.8 9.8-88.6 58.7-85.6 113.8 2 36.3 17.9 65.5 47.2 86.9 13.8 10.1 28.3 29.6 36.8 49.3 5.5 12.8 5.3 13.5-1 5-6.7-8.9-18.3-20.4-25.6-25.4-7.6-5.2-19.5-10.7-29.2-13.7-8.2-2.5-10.5-2.7-26-2.8-13.6-.1-18.5.3-24.5 1.8-37.4 9.4-66.5 39.2-76.7 78.4-3.1 12-4.2 32.8-2.4 45.2 3.7 24.7 14.3 46.2 31.6 63.5 12.8 12.9 28.5 22 45.9 26.7 9.5 2.5 30.1 3.5 40.3 1.8 27.1-4.3 51.3-19.6 67.5-42.4 5.3-7.5 5.4-6.5.6 4.9-12.1 28.8-34.8 53.5-61.5 66.9-14.4 7.3-36.4 13.6-47.4 13.6-1.6 0-2.9.4-2.9 1 0 .7 43.7 1 129 1s129-.3 129-1c0-.6-1.7-1-3.9-1-6.4 0-21-2.9-30.3-6-30.5-10.2-54.4-30.3-71-59.5-6.7-11.7-16-36.1-10.2-26.5 13.9 22.7 36.9 40.2 61.9 47 11.4 3.1 32.2 3.9 43.5 1.6 26.3-5.4 46.9-18.4 63.1-39.9 24.9-33.1 29.3-80.9 10.9-118.4-15.6-31.7-43.5-53-76.3-58.3-10.6-1.7-31-.8-41 1.9-9.1 2.4-22.2 8.3-30.4 13.8-11.2 7.4-24.7 21.6-31.6 33.3-1.5 2.5-2.7 4.2-2.7 3.8 0-1.9 5.8-16.4 9.8-24.3 8.9-17.9 19.4-31.3 28.1-36 34.6-18.7 56.1-56 56.1-97.5 0-32-11.8-60.2-34.2-81.6-13.6-13-27.6-20.8-45.6-25.5-10.2-2.7-30.8-3.4-41.3-1.4zm503.6 22.2c-27.5 41.5-52.9 77.1-71.8 100.8-10.4 12.9-59.9 62.3-88.7 88.4-12.4 11.2-23.7 21.6-25.3 23l-2.8 2.7 24.3 21.9c30.6 27.7 82 78.8 92.5 92 19 23.9 44.3 59.4 71.8 100.8 8.7 13.1 16.2 23.6 16.6 23.5.3-.2 7.9-11.1 16.7-24.4 25.9-39.1 54.6-79.5 68.5-96.4 20.7-25.3 68.1-72.1 112.5-111 3.4-3 6.2-5.9 6.2-6.5 0-.6-2.8-3.5-6.2-6.5-44.4-38.9-91.8-85.7-112.5-111-13.9-16.9-42.6-57.3-68.5-96.4-8.8-13.3-16.4-24.2-16.7-24.4-.4-.1-7.9 10.4-16.6 23.5zm519.2-23c-.4.3-.7 3.2-.7 6.3 0 19-8.8 46.2-22.2 69-14.8 25.1-34.6 48.6-80.5 95.2-18.6 18.9-38.1 39.1-43.4 44.8-33.7 36.9-50.8 66-55.4 94.4-1.9 11.5-1.9 19.5 0 31.9 3.4 22.5 12.9 41.7 28.8 58.4 45.5 47.6 122.3 40.5 159-14.7 5.3-8.1 5.3-7.2.1 6.1-14 35.5-41.7 62.9-76.2 75.3-10.4 3.7-21.8 6.5-30 7.2-4 .4-7.2 1.1-7.2 1.5 0 .5 58.1.9 129 .9 85.3 0 129-.3 129-1 0-.6-1.7-1-3.8-1-6 0-21.9-3-30.2-5.7-10.6-3.4-24.4-10.1-33.5-16.3-16.5-11.2-34.2-32.3-43.1-51.6-3.1-6.5-8.4-20.7-8.4-22.2 0-.2 2.3 3.2 5.2 7.5 17 25.4 46.1 42.8 75.8 45.1 11.5 1 26.3-.2 36-2.8 9.3-2.6 25.7-10.5 33-15.9 36.6-27.4 52.4-74.4 39-116.1-5.2-16-17.3-36.4-33.5-56.6-11.6-14.4-23.4-27.2-50-54.4-50.6-51.8-67.9-71.5-84.2-96-18.2-27.2-27.7-51.9-30.3-78-1.1-11.9-1.2-12.4-2.3-11.3z"></path>
  </symbol>
</svg>