<svg xmlns="http://www.w3.org/2000/svg" xmlns:xlink="http://www.w3.org/1999/xlink" viewBox="0 0 569.117 818.561"><defs><radialGradient id="a" gradientUnits="userSpaceOnUse" cy="402.42" cx="-381.81" gradientTransform="matrix(1.6611 -.10339 .16029 2.4085 165.51 -480.74)" r="74.503"><stop offset="0" stop-color="maroon"/><stop offset="1" stop-color="maroon" stop-opacity="0"/></radialGradient><radialGradient id="d" xlink:href="#a" gradientUnits="userSpaceOnUse" cy="402.42" cx="-381.81" gradientTransform="matrix(1.6611 -.10339 .16029 2.4085 165.51 -480.74)" r="74.503"/><linearGradient id="b" y2="447.58" gradientUnits="userSpaceOnUse" x2="-341.45" gradientTransform="matrix(.99981 0 0 1.1047 63.706 -68.542)" y1="447.58" x1="-610.39"><stop offset="0"/><stop offset="1" stop-opacity="0"/></linearGradient><linearGradient id="c" y2="447.58" xlink:href="#b" gradientUnits="userSpaceOnUse" x2="-341.45" gradientTransform="matrix(.99981 0 0 1.1047 63.706 -68.542)" y1="447.58" x1="-610.39"/></defs><g transform="matrix(-.76982 0 0 .76982 594.754 -26.71)"><path d="M519.74 133.63C465 111.39 305.9 42.963 283.66 169.56c-22.239 126.59-56.453 266.87-35.925 290.82s89.037 169.34 90.667 177.91c13.233 69.57 89.977 52.441 99.22-17.107 1.926-14.489 41.057-100.93 54.742-116.33 13.686-15.396 94.088-82.113 100.93-114.62 6.843-32.503-73.56-256.6-73.56-256.6z" stroke="#ffb380" stroke-width=".855" fill="#ffe6d5"/><path d="M397.146 138.76c13.383 27.546 26.83 52 18.817 83.825m-18.817-85.535c19.443 31.363 50.993 59.304 47.9 90.667m-44.479-82.114c6.583 22.81-6.35 57.594-22.239 80.403" stroke-width=".855" fill="red" stroke="maroon"/><path d="M386.3 49.806c-76.62 10.576-156.31 8.537-228.37 36.622-36.04 14.042-69.706 35.922-93.206 66.632-23.501 30.72-35.99 70.82-29.114 108.87 3.8 21.031 13.208 40.69 24.548 58.804s24.652 34.898 37.135 52.244c12.484 17.346 24.241 35.441 32.011 55.349 7.77 19.908 11.394 41.873 7.237 62.835-2.958 14.915-9.69 28.766-16.128 42.541-6.438 13.775-12.718 27.913-14.665 42.993-2.005 15.523.778 31.583 7.576 45.681 6.798 14.099 17.552 26.213 30.554 34.928 13.001 8.715 28.203 14.043 43.766 15.703 15.564 1.66 31.466-.32 46.266-5.413 29.601-10.184 54.221-32.758 69.349-60.164s21.121-59.337 19.747-90.61c-1.43-32.55-10.515-64.21-19.153-95.627-8.638-31.417-16.949-63.389-16.772-95.97.2-37.013 11.704-73.889 32.583-104.45s51.048-54.687 85.455-68.33c20.215 4.101 38.302 17.665 47.899 35.924 6.324 12.03 9.008 25.688 9.831 39.255.824 13.566-.136 27.168-.695 40.748-.558 13.58-.707 27.278 1.711 40.653 2.419 13.374 7.557 26.515 16.524 36.73 8.645 9.845 20.288 16.437 31.03 23.94 5.371 3.75 10.583 7.787 15.068 12.561 4.485 4.776 8.24 10.33 10.355 16.53 3.95 11.581 1.825 24.625-3.666 35.56-5.491 10.936-14.082 20.015-23.281 28.085-9.199 8.07-19.12 15.301-28.127 23.584-9.008 8.284-17.197 17.803-21.907 29.097-5.432 13.024-5.873 27.961-1.758 41.46s12.673 25.513 23.737 34.272c11.063 8.76 24.556 14.297 38.508 16.411 13.952 2.115 28.34.857 41.89-3.083 27.1-7.881 50.3-26.22 68.017-48.19 17.716-21.968 30.406-47.523 41.733-73.373 35.246-80.438 58.85-169.48 43.453-255.94-7.7-43.23-25.34-85.05-53.41-118.81-28.08-33.763-66.86-59.113-109.79-68.318-54.52-11.688-110.71 2.64-165.94 10.264z" stroke="maroon" stroke-width=".855" fill="red"/><ellipse rx="19.386" ry="16.82" cy="314.11" cx="417.09" stroke="#000" stroke-width=".855" stroke-linecap="round" fill="#fff"/><ellipse rx="24.805" ry="5.987" transform="rotate(-15.029)" cy="529.3" cx="377.44" stroke="green" stroke-width=".855" stroke-linecap="round" fill="maroon"/><ellipse rx="10.342" ry="14.618" cy="306.41" cx="455.58" fill-opacity=".984" stroke="green" stroke-width=".855" stroke-linecap="round" fill="#fff"/><circle cx="409.4" cy="314.11" r="7.698" stroke="#000" stroke-width=".855" stroke-linecap="round"/><circle cx="453.02" cy="308.12" r="6.888" stroke="#000" stroke-width=".765" stroke-linecap="round"/><path d="M464.99 349.18c25.66-27.371 73.56-35.925 49.61-10.264-23.95 25.66-44.478 30.792-44.478 30.792" stroke="#f95" stroke-width=".855" fill="#ffe6d5"/><path d="M372.62 61.781c23.95 71.849-.136 108.26-41.057 114.62-51.733 8.033-88.955 210.24-53.032 280.55 32.417 63.451-28.404 182.43-71.849 171.07-44.16-11.55-108.49-11.92-76.98-59.87 39.34-59.88 17.1-201.87-15.4-251.48-32.502-49.61-91.413-96.55-18.816-152.25 70.926-54.41 275.47-105.15 277.14-102.64z" fill="maroon"/><path d="M391.43 61.781c-20.493 38.093 32.843 85.966 73.56 104.35 14.374 6.49 54.742 75.271 70.138 99.22 15.396 23.95 18.115 71.778 30.792 94.088 14.581 25.66-23.021 133.43-46.189 141.99-16.523 6.1-41.057 32.503-11.975 61.585s90.667 11.975 114.62-25.66c23.95-37.635 80.963-226.69 76.981-273.71-6.08-71.95-42.58-129.31-82.11-164.24-39.88-35.24-130.01-51.317-152.25-47.895-22.23 3.421-80.4 10.264-80.4 10.264l3.421 6.843z" fill="#d40000"/><path d="M400 918.36l-6 106-54 14 64 2-2-22s23.59-30.471 22-48c-.735-8.104-14-20-14-20l8-42zm60.5-.99l46.009 95.683 55.255-7.673-58.39 26.279-6.55-21.099s-33.436-19.158-38.657-35.966c-2.414-7.772 5.306-23.83 5.306-23.83l-23.427-35.766z" stroke="#f95" fill="#ffe6d5"/><path d="M402 842.36l-68 86 196-6-84-76z" stroke="#f60" fill="#de8787"/><path d="M385.03 855.28c-20.065-10.701-37.454-49.493-37.454-22.74s22.74 29.428 12.039 32.103c-10.701 2.675-33.441 14.714-22.74 16.052 10.701 1.338 26.753-2.675 13.376 5.35-13.376 8.026-24.078 17.39-10.701 14.715 13.376-2.676 8.026-8.026 24.078-5.351s17.389-12.039 17.389-17.389 16.052-13.376 16.052-13.376z" stroke="#f95" stroke-width=".669" fill="#ffe6d5"/><path d="M236 706.36l-34 68 176 116c15.922-5.78 22.326-15.128 14-30l-156-92 34-42z" stroke="#f95" fill="#ffe6d5"/><path d="M454.58 852.73c16.519-15.627 23.028-57.637 30.105-31.837 7.077 25.8-14.146 34.395-3.118 34.144 11.028-.25 36.142 5.344 26.176 9.465-9.966 4.12-26.508 4.496-11.485 8.698s27.82 10.401 14.212 11.36c-13.608.957-9.863-5.618-24.635 1.208s-19.954-7.01-21.37-12.17c-1.416-5.16-19.018-8.654-19.018-8.654z" stroke="#f95" stroke-width=".669" fill="#ffe6d5"/><path d="M573.39 676.75l45.94 60.58L467.7 883.75c-23.044-5.045-18.713-14.836-19.285-26.909l136.39-119.15-41.153-35.021z" stroke="#f95" fill="#ffe6d5"/><path d="M215.23 705L401.5 849.59l44.93-3.15 148.58-172.23-148.83-76.98c-40.486 99.663-80.973 34.389-121.46 15.396 3.526-1.456-86.06 72.742-109.48 92.377z" stroke="#ff7f2a" stroke-width=".855" fill="#ff0"/><path d="M454 276.36l-22 2m-20-4c-12.978 5.69-24.337 12.997-32 24" stroke="#f60" fill="none"/><path d="M290 714.36c-48 44-2.287 89.002 24 96 51.252 13.644 74.795-32.747 64-42m145.59-68c48 44 2.287 89.002-24 96-51.252 13.644-74.795-32.747-64-42" stroke="#f60" fill="#ff0"/><ellipse rx="11.378" ry="10.81" cy="617.14" cx="329.98" stroke="#ccc" fill="#0ff"/><ellipse rx="11.378" ry="10.81" cy="630.79" cx="350.46" stroke="#ccc" fill="#0ff"/><ellipse rx="11.378" ry="10.81" cy="645.58" cx="370.94" stroke="#ccc" fill="#0ff"/><ellipse rx="11.378" ry="10.81" cy="654.69" cx="397.11" stroke="#ccc" fill="#0ff"/><ellipse rx="11.378" ry="10.81" cy="644.44" cx="423.28" stroke="#ccc" fill="#0ff"/><ellipse rx="11.378" ry="10.81" cy="623.96" cx="440.35" stroke="#ccc" fill="#0ff"/><ellipse rx="11.378" ry="10.81" cy="603.48" cx="454" stroke="#ccc" fill="#0ff"/></g><g transform="rotate(-119.996 104.36 336.612) scale(.33022)"><path d="M-411.48 577.03v30.622l-22.329 12.759 35.726 2.552-6.699-20.415z" fill="red"/><ellipse rx="133.95" ry="174.78" cy="425.89" cx="-412.12" stroke="url(#c)" stroke-width="1.051" stroke-linecap="round" fill="teal"/><ellipse rx="116.21" ry="134.07" cy="461.61" cx="-412.12" opacity=".796" fill="url(#d)"/><rect ry=".313" rx="1.103" transform="matrix(.54372 .83927 -.84695 -.53168 0 0)" height="40.549" width="34.41" y="1132" x="1148.7" fill="#fff"/></g><g transform="matrix(.27961 -.48436 -.48436 -.27961 796.944 656.5)"><path d="M-411.48 577.03v30.622l-22.329 12.759 35.726 2.552-6.699-20.415z" fill="red"/><ellipse rx="133.95" ry="174.78" cy="425.89" cx="-412.12" stroke="url(#c)" stroke-width="1.051" stroke-linecap="round" fill="red"/><ellipse rx="116.21" ry="134.07" cy="461.61" cx="-412.12" opacity=".796" fill="url(#d)"/><rect transform="matrix(.54372 .83927 -.84695 -.53168 0 0)" rx="1.103" ry=".313" height="40.549" width="34.41" y="1132" x="1148.7" fill="#fff"/></g></svg>