<?xml version="1.0" encoding="UTF-8" standalone="no"?>
<!-- Created with Inkscape (http://www.inkscape.org/) -->
<svg xmlns:inkscape="http://www.inkscape.org/namespaces/inkscape" xmlns:rdf="http://www.w3.org/1999/02/22-rdf-syntax-ns#" xmlns="http://www.w3.org/2000/svg" xmlns:sodipodi="http://sodipodi.sourceforge.net/DTD/sodipodi-0.dtd" xmlns:cc="http://creativecommons.org/ns#" xmlns:xlink="http://www.w3.org/1999/xlink" xmlns:dc="http://purl.org/dc/elements/1.1/" id="svg2" sodipodi:docname="_svgclean2.svg" viewBox="0 0 569.11734 818.56074" version="1.1" inkscape:version="0.48.3.1 r9886">
  <defs id="defs4">
    <linearGradient id="linearGradient4214" y2="447.58" gradientUnits="userSpaceOnUse" x2="-341.45" gradientTransform="matrix(.99981 0 0 1.1047 63.706 -68.542)" y1="447.58" x1="-610.39" inkscape:collect="always">
      <stop id="stop4210" style="stop-color:#000000" offset="0"/>
      <stop id="stop4212" style="stop-color:#000000;stop-opacity:0" offset="1"/>
    </linearGradient>
    <radialGradient id="radialGradient4258" gradientUnits="userSpaceOnUse" cy="402.42" cx="-381.81" gradientTransform="matrix(1.6611 -.10339 .16029 2.4085 165.51 -480.74)" r="74.503" inkscape:collect="always">
      <stop id="stop4254" style="stop-color:#800000" offset="0"/>
      <stop id="stop4256" style="stop-color:#800000;stop-opacity:0" offset="1"/>
    </radialGradient>
    <linearGradient id="linearGradient3037" y2="447.58" xlink:href="#linearGradient4214" gradientUnits="userSpaceOnUse" x2="-341.45" gradientTransform="matrix(.99981 0 0 1.1047 63.706 -68.542)" y1="447.58" x1="-610.39" inkscape:collect="always"/>
    <radialGradient id="radialGradient3039" xlink:href="#radialGradient4258" gradientUnits="userSpaceOnUse" cy="402.42" cx="-381.81" gradientTransform="matrix(1.6611 -.10339 .16029 2.4085 165.51 -480.74)" r="74.503" inkscape:collect="always"/>
  </defs>
  <sodipodi:namedview id="base" bordercolor="#666666" inkscape:pageshadow="2" inkscape:window-y="0" pagecolor="#ffffff" inkscape:window-maximized="0" inkscape:zoom="0.39187386" inkscape:window-x="372" inkscape:window-height="484" showgrid="false" borderopacity="1.0" inkscape:current-layer="layer1" inkscape:cx="307.66355" inkscape:cy="483.09813" inkscape:window-width="370" inkscape:pageopacity="0.0" inkscape:document-units="px"/>
  <g id="layer1" inkscape:label="Layer 1" inkscape:groupmode="layer" transform="translate(-67.336 -164.22)">
    <g id="g3317">
      <g id="g4166" transform="matrix(-.76982 0 0 .76982 662.09 137.51)">
        <path id="path3279" inkscape:connector-curvature="0" sodipodi:nodetypes="cssssssc" style="stroke:#ffb380;stroke-width:.85535px;fill:#ffe6d5" d="m519.74 133.63c-54.74-22.24-213.84-90.667-236.08 35.93-22.239 126.59-56.453 266.87-35.925 290.82s89.037 169.34 90.667 177.91c13.233 69.57 89.977 52.441 99.22-17.107 1.9256-14.489 41.057-100.93 54.742-116.33 13.686-15.396 94.088-82.113 100.93-114.62 6.8428-32.503-73.56-256.6-73.56-256.6z"/>
        <g id="g4113" style="fill:#ff0000" transform="matrix(.85535 0 0 .85535 31.056 -29.196)">
          <path id="path4107" d="m428 196.36c15.647 32.204 31.367 60.793 22 98" sodipodi:nodetypes="cc" style="stroke:#800000;stroke-width:1px;fill:#ff0000" inkscape:connector-curvature="0"/>
          <path id="path4109" d="m428 194.36c22.731 36.667 59.617 69.333 56 106" sodipodi:nodetypes="cc" style="stroke:#800000;stroke-width:1px;fill:#ff0000" inkscape:connector-curvature="0"/>
          <path id="path4111" d="m432 204.36c7.6964 26.667-7.4236 67.333-26 94" sodipodi:nodetypes="cc" style="stroke:#800000;stroke-width:1px;fill:#ff0000" inkscape:connector-curvature="0"/>
        </g>
        <path id="path3262" style="stroke:#800000;stroke-width:.85535px;fill:#ff0000" d="m386.3 49.806c-76.62 10.576-156.31 8.537-228.37 36.622-36.04 14.042-69.706 35.922-93.206 66.632-23.501 30.72-35.99 70.82-29.114 108.87 3.7995 21.031 13.208 40.69 24.548 58.804s24.652 34.898 37.135 52.244c12.484 17.346 24.241 35.441 32.011 55.349 7.7701 19.908 11.394 41.873 7.2366 62.835-2.9577 14.915-9.6901 28.766-16.128 42.541-6.4378 13.775-12.718 27.913-14.665 42.993-2.0042 15.523 0.77843 31.583 7.5764 45.681 6.798 14.099 17.552 26.213 30.554 34.928 13.001 8.715 28.203 14.043 43.766 15.703 15.564 1.6597 31.466-0.32074 46.266-5.4126 29.601-10.184 54.221-32.758 69.349-60.164s21.121-59.337 19.747-90.61c-1.4306-32.551-10.515-64.21-19.153-95.627-8.6381-31.417-16.949-63.389-16.772-95.971 0.20081-37.012 11.704-73.888 32.583-104.45s51.048-54.686 85.455-68.33c20.215 4.1017 38.302 17.666 47.899 35.925 6.3241 12.03 9.0082 25.688 9.8314 39.255 0.82319 13.566-0.13669 27.168-0.69509 40.748-0.55839 13.58-0.70725 27.278 1.711 40.653 2.4182 13.374 7.5566 26.515 16.524 36.729 8.6446 9.8459 20.288 16.438 31.03 23.94 5.3711 3.7509 10.583 7.7873 15.068 12.562 4.485 4.7752 8.24 10.329 10.355 16.529 3.9503 11.582 1.8245 24.626-3.6666 35.561-5.4911 10.936-14.082 20.015-23.281 28.085-9.1987 8.0701-19.119 15.301-28.127 23.584-9.0073 8.2832-17.197 17.803-21.907 29.097-5.4316 13.024-5.8732 27.961-1.7579 41.459s12.673 25.514 23.737 34.273c11.063 8.7594 24.556 14.297 38.508 16.411 13.952 2.1144 28.34 0.85683 41.89-3.0836 27.1-7.8809 50.301-26.219 68.017-48.189 17.716-21.969 30.406-47.524 41.733-73.374 35.246-80.438 58.85-169.48 43.453-255.94-7.7-43.23-25.34-85.05-53.41-118.81-28.08-33.763-66.86-59.113-109.79-68.318-54.52-11.688-110.71 2.64-165.94 10.264z" sodipodi:nodetypes="cssssscssssssc" inkscape:connector-curvature="0" inkscape:original-d="M 386.30184,49.805837 C 155.35812,66.912777 -19.132697,106.25875 35.60952,261.93193 90.351736,417.6051 218.65381,433.00135 136.54048,491.16496 c -82.113324,58.1636 -75.270547,94.08818 -30.7925,85.53471 44.47806,-8.55347 248.05067,20.52833 217.25818,-59.8743 -30.7925,-80.40263 -61.585,-196.72984 -35.92458,-191.59775 25.66041,5.13208 118.0379,-172.78013 118.0379,-172.78013 0,0 42.76736,-63.295693 47.89944,35.92458 5.13208,99.22027 8.55347,160.80526 27.37111,157.38388 18.81763,-3.42139 71.84915,6.84277 56.45291,53.03152 -15.39625,46.18874 -107.77374,87.2454 -76.98124,116.32721 30.79249,29.0818 306.62976,80.04208 212.12609,-32.50319 C 483.81141,258.51054 574.47821,42.963057 552.23918,39.541667 530.00016,36.120287 386.30184,49.805837 386.30184,49.805837 z"/>
        <ellipse id="path3266" sodipodi:rx="19.386" sodipodi:cy="314.10999" style="stroke:#000000;stroke-width:.85535;stroke-linecap:round;fill:#ffffff" d="m 436.476,314.10999 c 0,9.28942 -8.67941,16.82 -19.386,16.82 -10.7066,0 -19.386,-7.53058 -19.386,-16.82 0,-9.28943 8.6794,-16.82 19.386,-16.82 10.70659,0 19.386,7.53057 19.386,16.82 z" sodipodi:ry="16.82" rx="19.386" ry="16.82" cy="314.11" cx="417.09" sodipodi:cx="417.09"/>
        <ellipse id="path3268" sodipodi:rx="24.805" sodipodi:cy="529.29999" style="stroke:#008000;stroke-width:.85535;stroke-linecap:round;fill:#800000" d="m 402.245,529.29999 c 0,3.30675 -11.10557,5.9874 -24.805,5.9874 -13.69942,0 -24.805,-2.68065 -24.805,-5.9874 0,-3.30675 11.10558,-5.9874 24.805,-5.9874 13.69943,0 24.805,2.68065 24.805,5.9874 z" sodipodi:ry="5.9874001" rx="24.805" ry="5.9874" transform="matrix(.96579 -.25931 .25931 .96579 0 0)" cy="529.3" cx="377.44" sodipodi:cx="377.44"/>
        <ellipse id="ellipse3270" sodipodi:rx="10.342" sodipodi:cy="306.41" style="fill-opacity:.98361;stroke:#008000;stroke-width:.85535;stroke-linecap:round;fill:#ffffff" d="m 465.92199,306.41 c 0,8.0733 -4.63027,14.618 -10.342,14.618 -5.71173,0 -10.342,-6.5447 -10.342,-14.618 0,-8.07329 4.63027,-14.618 10.342,-14.618 5.71173,0 10.342,6.54471 10.342,14.618 z" sodipodi:ry="14.618" rx="10.342" ry="14.618" cy="306.41" cx="455.58" sodipodi:cx="455.57999"/>
        <circle id="path4101" sodipodi:rx="7.6981001" sodipodi:ry="7.6981001" style="stroke:#000000;stroke-width:.85535;stroke-linecap:round;fill:#000000" d="m 417.09809,314.10999 c 0,4.25154 -3.44655,7.6981 -7.6981,7.6981 -4.25154,0 -7.6981,-3.44656 -7.6981,-7.6981 0,-4.25155 3.44656,-7.6981 7.6981,-7.6981 4.25155,0 7.6981,3.44655 7.6981,7.6981 z" cx="409.4" sodipodi:cy="314.10999" cy="314.11" r="7.6981" sodipodi:cx="409.39999"/>
        <circle id="circle4103" sodipodi:rx="6.8878002" sodipodi:ry="6.8878002" style="stroke:#000000;stroke-width:.76531;stroke-linecap:round;fill:#000000" d="m 459.90779,308.12 c 0,3.80402 -3.08377,6.8878 -6.8878,6.8878 -3.80403,0 -6.8878,-3.08378 -6.8878,-6.8878 0,-3.80403 3.08377,-6.88781 6.8878,-6.88781 3.80403,0 6.8878,3.08378 6.8878,6.88781 z" cx="453.02" sodipodi:cy="308.12" cy="308.12" r="6.8878" sodipodi:cx="453.01999"/>
        <path id="path4105" style="stroke:#ff9955;stroke-width:.85535px;fill:#ffe6d5" inkscape:connector-curvature="0" d="m464.99 349.18c25.66-27.371 73.56-35.925 49.61-10.264-23.95 25.66-44.478 30.792-44.478 30.792"/>
        <path id="path4118" inkscape:connector-curvature="0" sodipodi:nodetypes="cssssssc" style="fill:#800000" d="m372.62 61.781c23.95 71.849-0.13551 108.26-41.057 114.62-51.733 8.0329-88.955 210.24-53.032 280.55 32.417 63.451-28.404 182.43-71.849 171.07-44.16-11.55-108.49-11.92-76.98-59.87 39.34-59.88 17.1-201.87-15.4-251.48-32.502-49.61-91.413-96.55-18.816-152.25 70.926-54.41 275.47-105.15 277.14-102.64z"/>
        <path id="path4120" inkscape:connector-curvature="0" sodipodi:nodetypes="csssssssssccc" style="fill:#d40000" d="m391.43 61.781c-20.493 38.093 32.843 85.966 73.56 104.35 14.374 6.4908 54.742 75.271 70.138 99.22 15.396 23.95 18.115 71.778 30.792 94.088 14.581 25.66-23.021 133.43-46.189 141.99-16.523 6.1001-41.057 32.503-11.975 61.585s90.667 11.975 114.62-25.66c23.95-37.635 80.963-226.69 76.981-273.71-6.08-71.95-42.58-129.31-82.11-164.24-39.88-35.24-130.01-51.317-152.25-47.895-22.23 3.421-80.4 10.264-80.4 10.264l3.4214 6.8428z"/>
        <path id="path4122" style="stroke:#000000;stroke-width:.85535px;fill:none" inkscape:connector-curvature="0" d="m391.43 61.781z"/>
        <path id="path4124" style="stroke:#000000;stroke-width:.85535px;fill:none" inkscape:connector-curvature="0" d="m389.72 61.781z"/>
        <path id="path4144" inkscape:connector-curvature="0" sodipodi:nodetypes="cccccaccc" style="stroke:#ff9955;stroke-width:1px;fill:#ffe6d5" d="m400 918.36-6 106-54 14 64 2-2-22s23.59-30.471 22-48c-0.73531-8.1044-14-20-14-20l8-42z"/>
        <path id="path4146" d="m460.5 917.37 46.009 95.683 55.255-7.6735-58.39 26.279-6.5495-21.098s-33.436-19.159-38.657-35.967c-2.4141-7.7714 5.3053-23.83 5.3053-23.83l-23.427-35.766z" sodipodi:nodetypes="cccccaccc" style="stroke:#ff9955;stroke-width:1px;fill:#ffe6d5" inkscape:connector-curvature="0"/>
        <path id="path4134" style="stroke:#ff6600;stroke-width:1px;fill:#de8787" inkscape:connector-curvature="0" d="m402 842.36-68 86 196-6-84-76z"/>
        <path id="path4148" style="stroke:#ff9955;stroke-width:.66882px;fill:#ffe6d5" inkscape:connector-curvature="0" d="m385.03 855.28c-20.065-10.701-37.454-49.493-37.454-22.74s22.74 29.428 12.039 32.103c-10.701 2.6753-33.441 14.714-22.74 16.052 10.701 1.3376 26.753-2.6753 13.376 5.3506-13.376 8.0258-24.078 17.389-10.701 14.714 13.376-2.6753 8.0258-8.0259 24.078-5.3506s17.389-12.039 17.389-17.389c0-5.3506 16.052-13.376 16.052-13.376z"/>
        <path id="path4140" inkscape:connector-curvature="0" sodipodi:nodetypes="ccccccc" style="stroke:#ff9955;stroke-width:1px;fill:#ffe6d5" d="m236 706.36-34 68 176 116c15.922-5.7793 22.326-15.128 14-30l-156-92 34-42z"/>
        <path id="path4150" d="m454.58 852.73c16.519-15.627 23.028-57.637 30.105-31.837 7.0765 25.8-14.146 34.395-3.1182 34.144 11.028-0.25061 36.142 5.3443 26.176 9.4649-9.9661 4.1206-26.508 4.4965-11.485 8.6982s27.82 10.401 14.212 11.359c-13.608 0.95828-9.8629-5.617-24.635 1.2089s-19.954-7.0102-21.37-12.17c-1.4153-5.16-19.018-8.6541-19.018-8.6541z" style="stroke:#ff9955;stroke-width:.66882px;fill:#ffe6d5" inkscape:connector-curvature="0"/>
        <path id="path4142" d="m573.39 676.75 45.94 60.58-151.63 146.42c-23.044-5.0445-18.713-14.836-19.285-26.909l136.39-119.15-41.153-35.021z" sodipodi:nodetypes="ccccccc" style="stroke:#ff9955;stroke-width:1px;fill:#ffe6d5" inkscape:connector-curvature="0"/>
        <path id="path4126" inkscape:connector-curvature="0" sodipodi:nodetypes="ccccccc" style="stroke:#ff7f2a;stroke-width:.85535px;fill:#ffff00" d="m215.23 705 186.27 144.59 44.93-3.15 148.58-172.23-148.83-76.98c-40.486 99.663-80.973 34.389-121.46 15.396 3.5259-1.456-86.06 72.742-109.48 92.377z"/>
        <path id="path4128" style="stroke:#000000;stroke-width:.85535px;fill:none" inkscape:connector-curvature="0" d="m328.14 605.78z"/>
        <path id="path4130" inkscape:connector-curvature="0" sodipodi:nodetypes="cc" style="stroke:#ff6600;stroke-width:1px;fill:none" d="m454 276.36-22 2"/>
        <path id="path4132" inkscape:connector-curvature="0" sodipodi:nodetypes="cc" style="stroke:#ff6600;stroke-width:1px;fill:none" d="m412 274.36c-12.978 5.6891-24.337 12.997-32 24"/>
        <path id="path4136" inkscape:connector-curvature="0" sodipodi:nodetypes="csc" style="stroke:#ff6600;stroke-width:1px;fill:#ffff00" d="m290 714.36c-48 44-2.2873 89.002 24 96 51.252 13.644 74.795-32.747 64-42"/>
        <path id="path4138" d="m523.59 700.36c48 44 2.2873 89.002-24 96-51.252 13.644-74.795-32.747-64-42" sodipodi:nodetypes="csc" style="stroke:#ff6600;stroke-width:1px;fill:#ffff00" inkscape:connector-curvature="0"/>
        <ellipse id="ellipse4154" sodipodi:rx="11.378" sodipodi:cy="617.14001" style="stroke:#cccccc;fill:#00ffff" d="m 341.35801,617.14001 c 0,5.9702 -5.0941,10.81001 -11.378,10.81001 -6.2839,0 -11.378,-4.83981 -11.378,-10.81001 0,-5.97019 5.0941,-10.81 11.378,-10.81 6.2839,0 11.378,4.83981 11.378,10.81 z" sodipodi:ry="10.81" rx="11.378" ry="10.81" cy="617.14" cx="329.98" sodipodi:cx="329.98001"/>
        <ellipse id="ellipse4156" sodipodi:rx="11.378" sodipodi:cy="630.78998" style="stroke:#cccccc;fill:#00ffff" d="m 361.83799,630.78998 c 0,5.9702 -5.0941,10.81 -11.378,10.81 -6.28389,0 -11.378,-4.8398 -11.378,-10.81 0,-5.9702 5.09411,-10.81 11.378,-10.81 6.2839,0 11.378,4.8398 11.378,10.81 z" sodipodi:ry="10.81" rx="11.378" ry="10.81" cy="630.79" cx="350.46" sodipodi:cx="350.45999"/>
        <ellipse id="ellipse4158" sodipodi:rx="11.378" sodipodi:cy="645.58002" style="stroke:#cccccc;fill:#00ffff" d="m 382.318,645.58002 c 0,5.9702 -5.0941,10.81 -11.378,10.81 -6.28389,0 -11.378,-4.8398 -11.378,-10.81 0,-5.9702 5.09411,-10.81 11.378,-10.81 6.2839,0 11.378,4.8398 11.378,10.81 z" sodipodi:ry="10.81" rx="11.378" ry="10.81" cy="645.58" cx="370.94" sodipodi:cx="370.94"/>
        <ellipse id="ellipse4160" sodipodi:rx="11.378" sodipodi:cy="654.69" style="stroke:#cccccc;fill:#00ffff" d="m 408.48799,654.69 c 0,5.9702 -5.09411,10.81 -11.378,10.81 -6.2839,0 -11.378,-4.8398 -11.378,-10.81 0,-5.9702 5.0941,-10.81 11.378,-10.81 6.28389,0 11.378,4.8398 11.378,10.81 z" sodipodi:ry="10.81" rx="11.378" ry="10.81" cy="654.69" cx="397.11" sodipodi:cx="397.10999"/>
        <ellipse id="ellipse4162" sodipodi:rx="11.378" sodipodi:cy="644.44" style="stroke:#cccccc;fill:#00ffff" d="m 434.658,644.44 c 0,5.9702 -5.09411,10.81 -11.378,10.81 -6.2839,0 -11.378,-4.8398 -11.378,-10.81 0,-5.9702 5.0941,-10.81 11.378,-10.81 6.28389,0 11.378,4.8398 11.378,10.81 z" sodipodi:ry="10.81" rx="11.378" ry="10.81" cy="644.44" cx="423.28" sodipodi:cx="423.28"/>
        <ellipse id="ellipse4164" sodipodi:rx="11.378" sodipodi:cy="623.96002" style="stroke:#cccccc;fill:#00ffff" d="m 451.72801,623.96002 c 0,5.9702 -5.09411,10.81 -11.378,10.81 -6.2839,0 -11.378,-4.8398 -11.378,-10.81 0,-5.9702 5.0941,-10.81 11.378,-10.81 6.28389,0 11.378,4.8398 11.378,10.81 z" sodipodi:ry="10.81" rx="11.378" ry="10.81" cy="623.96" cx="440.35" sodipodi:cx="440.35001"/>
        <ellipse id="path4152" sodipodi:rx="11.378" sodipodi:cy="603.47998" style="stroke:#cccccc;fill:#00ffff" d="m 465.378,603.47998 c 0,5.9702 -5.0941,10.81 -11.378,10.81 -6.2839,0 -11.378,-4.8398 -11.378,-10.81 0,-5.9702 5.0941,-10.81 11.378,-10.81 6.2839,0 11.378,4.8398 11.378,10.81 z" sodipodi:ry="10.81" rx="11.378" ry="10.81" cy="603.48" cx="454" sodipodi:cx="454"/>
      </g>
      <g id="g4268" transform="matrix(-.16509 -.28599 .28599 -.16509 -67.655 759.5)">
        <path id="path4270" d="m-411.48 577.03v30.622l-22.329 12.759 35.726 2.5518-6.6986-20.415z" style="fill:#ff0000" inkscape:connector-curvature="0"/>
        <ellipse id="ellipse4272" sodipodi:rx="133.95" sodipodi:cy="425.89001" style="stroke:url(#linearGradient3037);stroke-width:1.0509;stroke-linecap:round;fill:#008080" d="m -278.17,425.89001 c 0,96.52833 -59.97145,174.78 -133.95,174.78 -73.97854,0 -133.94999,-78.25167 -133.94999,-174.78 0,-96.52832 59.97145,-174.77999 133.94999,-174.77999 73.97855,0 133.95,78.25167 133.95,174.77999 z" sodipodi:ry="174.78" rx="133.95" ry="174.78" cy="425.89" cx="-412.12" sodipodi:cx="-412.12"/>
        <ellipse id="ellipse4274" sodipodi:rx="116.21" sodipodi:cy="461.60999" style="opacity:0.796;fill:url(#radialGradient3039)" d="m -295.91,461.60999 c 0,74.04482 -52.02898,134.07 -116.21,134.07 -64.18101,0 -116.20999,-60.02518 -116.20999,-134.07 0,-74.04483 52.02898,-134.07001 116.20999,-134.07001 64.18102,0 116.21,60.02518 116.21,134.07001 z" sodipodi:ry="134.07001" rx="116.21" ry="134.07" cy="461.61" cx="-412.12" sodipodi:cx="-412.12"/>
        <rect id="rect4276" ry=".31260" style="fill:#ffffff" rx="1.103" transform="matrix(.54372 .83927 -.84695 -.53168 0 0)" height="40.549" width="34.41" y="1132" x="1148.7"/>
      </g>
      <g id="g4262" transform="matrix(.27961 -.48436 -.48436 -.27961 864.28 820.72)">
        <path id="path4260" style="fill:#ff0000" inkscape:connector-curvature="0" d="m-411.48 577.03v30.622l-22.329 12.759 35.726 2.5518-6.6986-20.415z"/>
        <ellipse id="path4206" sodipodi:rx="133.95" sodipodi:cy="425.89001" style="stroke:url(#linearGradient3037);stroke-width:1.0509;stroke-linecap:round;fill:#ff0000" d="m -278.17,425.89001 c 0,96.52833 -59.97145,174.78 -133.95,174.78 -73.97854,0 -133.94999,-78.25167 -133.94999,-174.78 0,-96.52832 59.97145,-174.77999 133.94999,-174.77999 73.97855,0 133.95,78.25167 133.95,174.77999 z" sodipodi:ry="174.78" rx="133.95" ry="174.78" cy="425.89" cx="-412.12" sodipodi:cx="-412.12"/>
        <ellipse id="ellipse4234" sodipodi:rx="116.21" sodipodi:cy="461.60999" style="opacity:0.796;fill:url(#radialGradient3039)" d="m -295.91,461.60999 c 0,74.04482 -52.02898,134.07 -116.21,134.07 -64.18101,0 -116.20999,-60.02518 -116.20999,-134.07 0,-74.04483 52.02898,-134.07001 116.20999,-134.07001 64.18102,0 116.21,60.02518 116.21,134.07001 z" sodipodi:ry="134.07001" rx="116.21" ry="134.07" cy="461.61" cx="-412.12" sodipodi:cx="-412.12"/>
        <rect id="rect4216" style="fill:#ffffff" transform="matrix(.54372 .83927 -.84695 -.53168 0 0)" rx="1.103" ry=".31260" height="40.549" width="34.41" y="1132" x="1148.7"/>
      </g>
    </g>
  </g>
  <metadata id="metadata60">
    <rdf:RDF>
      <cc:Work>
        <dc:format>image/svg+xml</dc:format>
        <dc:type rdf:resource="http://purl.org/dc/dcmitype/StillImage"/>
        <cc:license rdf:resource="http://creativecommons.org/licenses/publicdomain/"/>
        <dc:publisher>
          <cc:Agent rdf:about="http://openclipart.org/">
            <dc:title>Openclipart</dc:title>
          </cc:Agent>
        </dc:publisher>
      </cc:Work>
      <cc:License rdf:about="http://creativecommons.org/licenses/publicdomain/">
        <cc:permits rdf:resource="http://creativecommons.org/ns#Reproduction"/>
        <cc:permits rdf:resource="http://creativecommons.org/ns#Distribution"/>
        <cc:permits rdf:resource="http://creativecommons.org/ns#DerivativeWorks"/>
      </cc:License>
    </rdf:RDF>
  </metadata>
</svg>
